<?xml version="1.0" standalone="no"?><!DOCTYPE svg PUBLIC "-//W3C//DTD SVG 1.1//EN" "http://www.w3.org/Graphics/SVG/1.1/DTD/svg11.dtd"><svg t="1743942207865" class="icon" viewBox="0 0 1024 1024" version="1.1" xmlns="http://www.w3.org/2000/svg" p-id="12247" width="256" height="256" xmlns:xlink="http://www.w3.org/1999/xlink"><path d="M512 512m-512 0a512 512 0 1 0 1024 0 512 512 0 1 0-1024 0Z" fill="#FF7F50" p-id="12248" data-spm-anchor-id="a313x.search_index.0.i40.66cd3a819ZaZpS" class="selected"></path><path d="M435.584 722.112l-134.656-142.08a61.824 61.824 0 0 1 0-84.032 54.4 54.4 0 0 1 79.872-0.128l94.72 99.584 224.448-236.672a54.336 54.336 0 0 1 79.744 0l0.128 0.128 0.192 0.192a62.016 62.016 0 0 1-0.128 84.16l-264.32 278.848a54.464 54.464 0 0 1-80 0z" fill="#ffffff" p-id="12249" data-spm-anchor-id="a313x.search_index.0.i41.66cd3a819ZaZpS" class=""></path></svg>